
<svg width="94px" height="94px" viewBox="0 0 94 94" version="1.1" xmlns="http://www.w3.org/2000/svg" xmlns:xlink="http://www.w3.org/1999/xlink">
    <g id="Page-1" stroke="none" stroke-width="1" fill="none" fill-rule="evenodd">
        <g id="Artboard" transform="translate(-273.000000, -30.000000)">
            <g id="craft-schema" transform="translate(273.000000, 30.000000)">
                <circle id="background" fill="#4DC0B5" cx="47" cy="47" r="47"></circle>
                <g id="icon" transform="translate(24.000000, 25.000000)" fill="#FFFFFF" fill-rule="nonzero">
                    <path d="M33,18 L15,18 L15,0 L33,0 L33,18 Z M18,15 L30,15 L30,3 L18,3 L18,15 Z" id="Shape"></path>
                    <path d="M18,45 L0,45 L0,27 L18,27 L18,45 Z M3,42 L15,42 L15,30 L3,30 L3,42 Z" id="Shape"></path>
                    <path d="M47,45 L29,45 L29,27 L47,27 L47,45 Z M32,42 L44,42 L44,30 L32,30 L32,42 Z" id="Shape"></path>
                    <rect id="Rectangle-path" x="22" y="18" width="3" height="4"></rect>
                    <polygon id="Shape" points="40 28 37 28 37 24 11 24 11 28 8 28 8 21 40 21"></polygon>
                </g>
            </g>
        </g>
    </g>
</svg>